<svg width="250" height="59" viewBox="0 0 250 59" fill="none" xmlns="http://www.w3.org/2000/svg">
<path d="M165.208 26.5148L165.359 23.8801C165.663 24.0445 166.117 24.0445 166.571 24.0445C168.691 24.0445 168.842 20.5863 168.842 10.7046H178.837V26.5148H175.809V13.3398H171.569C171.569 21.9039 171.266 26.6797 167.328 26.6797C166.571 26.8441 165.814 26.6797 165.208 26.5148ZM182.32 10.8695H185.197V16.6336C185.197 18.2804 185.046 21.2449 185.046 22.7269L191.255 10.869H194.435V26.6797H191.557V20.9156C191.557 19.2687 191.709 16.3043 191.709 14.8223L185.5 26.6797H182.32V10.8695H182.32ZM196.857 26.3499L197.16 23.5503C198.22 24.2089 199.582 24.3738 200.794 24.3738C202.157 24.3738 203.822 24.0445 203.822 22.0679C203.822 19.9268 201.702 19.762 200.339 19.762C200.037 19.762 199.734 19.762 199.28 19.762V17.2917C199.582 17.2917 199.886 17.2917 200.037 17.2917C201.399 17.2917 203.671 16.9624 203.671 14.9858C203.671 13.3389 202.156 13.0096 200.945 13.0096C199.885 13.0096 198.371 13.3389 197.462 13.6682L197.159 11.1979C198.371 10.8686 200.037 10.5393 201.399 10.5393C204.277 10.5393 206.548 11.692 206.548 14.6565C206.548 16.3033 205.488 17.6209 203.822 18.1146C205.64 18.4439 206.851 20.0912 206.851 21.9025C206.851 25.3611 204.428 26.6783 201.097 26.6783C199.583 27.0089 198.068 26.6797 196.857 26.3499ZM209.729 10.8695H212.606V16.6336C212.606 18.2804 212.455 21.2449 212.455 22.7269L218.663 10.869H221.843V26.6797H218.966V20.9156C218.966 19.2687 219.117 16.3043 219.117 14.8223L212.909 26.6797H209.729V10.8695ZM225.477 10.8695H228.506V17.1277H234.26V10.8695H237.289V26.6797H234.26V19.7624H228.506V26.6797H225.478V10.8695H225.477ZM240.62 10.8695H249.1V13.5047H243.498V26.6797H240.469V10.8695H240.62ZM131.439 50.3944H137.951C140.374 50.3944 141.888 49.7359 142.948 48.2534C143.402 47.5948 144.159 46.2772 144.159 43.8069C144.159 41.3366 143.402 39.6893 141.888 38.3722C140.979 37.7136 139.768 37.2194 137.799 37.2194H131.288V50.3944H131.439ZM122.808 58.3V10.8695H151.277L148.854 18.7746H131.44V29.3144H138.557C144.16 29.3144 147.189 30.7968 149.158 32.6081C150.672 34.0906 153.397 37.3839 153.397 43.8074C153.397 50.23 150.672 53.6886 148.249 55.5004C145.523 57.4765 142.646 58.1351 136.891 58.1351H122.809V58.3H122.808ZM97.6707 58.3V18.7746H85.1017V10.8695H120.233L117.811 18.7746H106.605V58.3H97.6707ZM62.539 29.8085H67.3846C68.8994 29.8085 69.6561 29.8085 70.4132 29.6441C72.3819 28.9856 73.7445 27.0089 73.7445 24.3742C73.7445 21.2454 72.3819 19.7629 70.4132 19.1043C69.6561 18.775 68.8989 18.6102 67.233 18.6102H62.6902V29.809H62.539V29.8085ZM62.6906 38.0434V50.5593H68.7478C70.5652 50.5593 72.2311 50.3949 73.4422 49.2417C74.6533 48.0885 75.1076 46.4421 75.1076 44.466C75.1076 42.984 74.6537 41.502 74.0477 40.3488C72.8362 38.7015 71.1708 38.2078 68.445 38.2078H62.6906V38.0434ZM76.6224 33.1027C78.2878 33.9257 79.8025 35.0789 80.7108 35.7375C83.2854 38.0434 84.3454 41.0074 84.3454 44.9601C84.3454 51.3827 81.1652 56.1589 76.0164 57.6409C74.5021 58.1351 72.8362 58.3 69.6561 58.3H53.9077V10.8695H67.8394C70.7164 10.8695 72.6851 11.0344 74.3509 11.5281C79.3477 13.0105 82.6795 16.798 82.6795 22.7269C82.6795 25.8558 81.6196 28.6558 79.9541 30.4676C79.3477 31.2905 78.2878 32.2788 76.6224 33.1027Z" fill="#263975"/>
<path d="M44.974 7.24605H8.02535L10.7511 0H47.6998L44.974 7.24605ZM43.6114 10.8695H6.66266L3.93687 18.1156H40.886L43.6114 10.8695ZM39.6741 21.5742H2.72536L0 28.8203H36.9487L39.6741 21.5742Z" fill="#009FDF"/>
</svg>
