<svg width="192" height="25" viewBox="0 0 192 25" fill="none" xmlns="http://www.w3.org/2000/svg">
<path d="M0.671875 24V1.15625H5.51562V20H14.7812V24H0.671875ZM31.9219 24H18.7656V1.15625H31.9219V5.125H23.6094V10.1406H31.3438V14.1094H23.6094V20H31.9219V24ZM50.6875 24L49.0312 18.5625H40.7031L39.0469 24H33.8281L41.8906 1.0625H47.8125L55.9062 24H50.6875ZM47.875 14.5C46.3438 9.57292 45.4792 6.78646 45.2812 6.14062C45.0938 5.49479 44.9583 4.98438 44.875 4.60938C44.5312 5.94271 43.5469 9.23958 41.9219 14.5H47.875ZM72.2812 17.6562C72.2812 19.7188 71.5365 21.3438 70.0469 22.5312C68.5677 23.7188 66.5052 24.3125 63.8594 24.3125C61.4219 24.3125 59.2656 23.8542 57.3906 22.9375V18.4375C58.9323 19.125 60.2344 19.6094 61.2969 19.8906C62.3698 20.1719 63.349 20.3125 64.2344 20.3125C65.2969 20.3125 66.1094 20.1094 66.6719 19.7031C67.2448 19.2969 67.5312 18.6927 67.5312 17.8906C67.5312 17.4427 67.4062 17.0469 67.1562 16.7031C66.9062 16.349 66.5365 16.0104 66.0469 15.6875C65.5677 15.3646 64.5833 14.849 63.0938 14.1406C61.6979 13.4844 60.651 12.8542 59.9531 12.25C59.2552 11.6458 58.6979 10.9427 58.2812 10.1406C57.8646 9.33854 57.6562 8.40104 57.6562 7.32812C57.6562 5.30729 58.3385 3.71875 59.7031 2.5625C61.0781 1.40625 62.974 0.828125 65.3906 0.828125C66.5781 0.828125 67.7083 0.96875 68.7812 1.25C69.8646 1.53125 70.9948 1.92708 72.1719 2.4375L70.6094 6.20312C69.3906 5.70312 68.3802 5.35417 67.5781 5.15625C66.7865 4.95833 66.0052 4.85938 65.2344 4.85938C64.3177 4.85938 63.6146 5.07292 63.125 5.5C62.6354 5.92708 62.3906 6.48438 62.3906 7.17188C62.3906 7.59896 62.4896 7.97396 62.6875 8.29688C62.8854 8.60938 63.1979 8.91667 63.625 9.21875C64.0625 9.51042 65.0885 10.0417 66.7031 10.8125C68.8385 11.8333 70.3021 12.8594 71.0938 13.8906C71.8854 14.9115 72.2812 16.1667 72.2812 17.6562ZM89.5781 24H76.4219V1.15625H89.5781V5.125H81.2656V10.1406H89V14.1094H81.2656V20H89.5781V24ZM99.2031 11.9062H100.797C102.286 11.9062 103.401 11.6146 104.141 11.0312C104.88 10.4375 105.25 9.57812 105.25 8.45312C105.25 7.31771 104.938 6.47917 104.312 5.9375C103.698 5.39583 102.729 5.125 101.406 5.125H99.2031V11.9062ZM110.141 8.28125C110.141 10.7396 109.37 12.6198 107.828 13.9219C106.297 15.224 104.115 15.875 101.281 15.875H99.2031V24H94.3594V1.15625H101.656C104.427 1.15625 106.531 1.75521 107.969 2.95312C109.417 4.14062 110.141 5.91667 110.141 8.28125ZM135.188 12.5469C135.188 16.3281 134.25 19.2344 132.375 21.2656C130.5 23.2969 127.812 24.3125 124.312 24.3125C120.812 24.3125 118.125 23.2969 116.25 21.2656C114.375 19.2344 113.438 16.3177 113.438 12.5156C113.438 8.71354 114.375 5.8125 116.25 3.8125C118.135 1.80208 120.833 0.796875 124.344 0.796875C127.854 0.796875 130.536 1.80729 132.391 3.82812C134.255 5.84896 135.188 8.75521 135.188 12.5469ZM118.516 12.5469C118.516 15.099 119 17.0208 119.969 18.3125C120.938 19.6042 122.385 20.25 124.312 20.25C128.177 20.25 130.109 17.6823 130.109 12.5469C130.109 7.40104 128.188 4.82812 124.344 4.82812C122.417 4.82812 120.964 5.47917 119.984 6.78125C119.005 8.07292 118.516 9.99479 118.516 12.5469ZM139.922 24V1.15625H144.766V24H139.922ZM170.781 24H164.625L154.688 6.71875H154.547C154.745 9.77083 154.844 11.9479 154.844 13.25V24H150.516V1.15625H156.625L166.547 18.2656H166.656C166.5 15.2969 166.422 13.1979 166.422 11.9688V1.15625H170.781V24ZM185.359 24H180.516V5.1875H174.312V1.15625H191.562V5.1875H185.359V24Z" fill="white"/>
</svg>
