<svg width="300" height="280" viewBox="0 0 300 280" fill="none" xmlns="http://www.w3.org/2000/svg">
<path d="M190.208 137.515L190.359 134.88C190.663 135.044 191.117 135.044 191.571 135.044C193.691 135.044 193.842 131.586 193.842 121.705H203.837V137.515H200.809V124.34H196.569C196.569 132.904 196.266 137.68 192.328 137.68C191.571 137.844 190.814 137.68 190.208 137.515ZM207.32 121.87H210.197V127.634C210.197 129.28 210.046 132.245 210.046 133.727L216.255 121.869H219.435V137.68H216.557V131.916C216.557 130.269 216.709 127.304 216.709 125.822L210.5 137.68H207.32V121.87H207.32ZM221.857 137.35L222.16 134.55C223.22 135.209 224.582 135.374 225.794 135.374C227.157 135.374 228.822 135.044 228.822 133.068C228.822 130.927 226.702 130.762 225.339 130.762C225.037 130.762 224.734 130.762 224.28 130.762V128.292C224.582 128.292 224.886 128.292 225.037 128.292C226.399 128.292 228.671 127.962 228.671 125.986C228.671 124.339 227.156 124.01 225.945 124.01C224.885 124.01 223.371 124.339 222.462 124.668L222.159 122.198C223.371 121.869 225.037 121.539 226.399 121.539C229.277 121.539 231.548 122.692 231.548 125.656C231.548 127.303 230.488 128.621 228.822 129.115C230.64 129.444 231.851 131.091 231.851 132.903C231.851 136.361 229.428 137.678 226.097 137.678C224.583 138.009 223.068 137.68 221.857 137.35ZM234.729 121.87H237.606V127.634C237.606 129.28 237.455 132.245 237.455 133.727L243.663 121.869H246.843V137.68H243.966V131.916C243.966 130.269 244.117 127.304 244.117 125.822L237.909 137.68H234.729V121.87ZM250.477 121.87H253.506V128.128H259.26V121.87H262.289V137.68H259.26V130.762H253.506V137.68H250.478V121.87H250.477ZM265.62 121.87H274.1V124.505H268.498V137.68H265.469V121.87H265.62ZM156.439 161.394H162.951C165.374 161.394 166.888 160.736 167.948 159.253C168.402 158.595 169.159 157.277 169.159 154.807C169.159 152.337 168.402 150.689 166.888 149.372C165.979 148.714 164.768 148.219 162.799 148.219H156.288V161.394H156.439ZM147.808 169.3V121.87H176.277L173.854 129.775H156.44V140.314H163.557C169.16 140.314 172.189 141.797 174.158 143.608C175.672 145.091 178.397 148.384 178.397 154.807C178.397 161.23 175.672 164.689 173.249 166.5C170.523 168.477 167.646 169.135 161.891 169.135H147.809V169.3H147.808ZM122.671 169.3V129.775H110.102V121.87H145.233L142.811 129.775H131.605V169.3H122.671ZM87.539 140.809H92.3846C93.8994 140.809 94.6561 140.809 95.4132 140.644C97.3819 139.986 98.7445 138.009 98.7445 135.374C98.7445 132.245 97.3819 130.763 95.4132 130.104C94.6561 129.775 93.8989 129.61 92.233 129.61H87.6902V140.809H87.539V140.809ZM87.6906 149.043V161.559H93.7478C95.5652 161.559 97.2311 161.395 98.4422 160.242C99.6533 159.089 100.108 157.442 100.108 155.466C100.108 153.984 99.6537 152.502 99.0477 151.349C97.8362 149.701 96.1708 149.208 93.445 149.208H87.6906V149.043ZM101.622 144.103C103.288 144.926 104.803 146.079 105.711 146.737C108.285 149.043 109.345 152.007 109.345 155.96C109.345 162.383 106.165 167.159 101.016 168.641C99.5021 169.135 97.8362 169.3 94.6561 169.3H78.9077V121.87H92.8394C95.7164 121.87 97.6851 122.034 99.3509 122.528C104.348 124.011 107.679 127.798 107.679 133.727C107.679 136.856 106.62 139.656 104.954 141.468C104.348 142.291 103.288 143.279 101.622 144.103Z" fill="#263975"/>
<path d="M69.974 118.246H33.0253L35.7511 111H72.6998L69.974 118.246ZM68.6114 121.87H31.6627L28.9369 129.116H65.886L68.6114 121.87ZM64.6741 132.574H27.7254L25 139.82H61.9487L64.6741 132.574Z" fill="#009FDF"/>
</svg>
