<svg width="28" height="28" viewBox="0 0 28 28" fill="none" xmlns="http://www.w3.org/2000/svg">
<path d="M14 0C21.732 0 28 6.26801 28 14C28 21.732 21.732 28 14 28C6.26801 28 0 21.732 0 14C0 6.26801 6.26801 0 14 0ZM14 21.5833C11.5664 21.5833 9.24004 22.2623 7.23708 23.5072C9.14454 24.867 11.4789 25.6667 14 25.6667C16.5206 25.6667 18.8545 24.8673 20.762 23.5083C18.7594 22.2621 16.4333 21.5833 14 21.5833ZM14 2.33333C7.55668 2.33333 2.33333 7.55668 2.33333 14C2.33333 17.0516 3.50496 19.8296 5.42293 21.9086C7.91656 20.1929 10.8861 19.25 14 19.25C17.1142 19.25 20.0841 20.1931 22.5781 21.907C24.4955 19.8286 25.6667 17.0511 25.6667 14C25.6667 7.55668 20.4433 2.33333 14 2.33333ZM14 6.41667C17.0615 6.41667 19.5417 8.89681 19.5417 11.9583C19.5417 15.0199 17.0615 17.5 14 17.5C10.9385 17.5 8.45833 15.0199 8.45833 11.9583C8.45833 8.89681 10.9385 6.41667 14 6.41667ZM14 8.75C12.2271 8.75 10.7917 10.1855 10.7917 11.9583C10.7917 13.7312 12.2271 15.1667 14 15.1667C15.7729 15.1667 17.2083 13.7312 17.2083 11.9583C17.2083 10.1855 15.7729 8.75 14 8.75Z" fill="white"/>
</svg>
