<svg width="28" height="28" viewBox="0 0 28 28" fill="none" xmlns="http://www.w3.org/2000/svg">
<path d="M14.224 19.4C12.842 19.3984 11.4747 19.6841 10.209 20.2389C8.94313 20.7938 7.80643 21.6056 6.87097 22.623L6.72592 22.7808L6.89331 22.9146C8.91054 24.5273 11.4174 25.404 14 25.4M14.224 19.4C15.557 19.3983 16.8769 19.6639 18.1055 20.1812C19.3341 20.6985 20.4466 21.4569 21.377 22.4116L21.5268 22.5652L21.363 22.7039C19.3767 24.3853 16.8071 25.4 14 25.4M14.224 19.4C14.2241 19.4 14.2241 19.4 14.2242 19.4L14.224 19.6M14.224 19.4C14.2239 19.4 14.2238 19.4 14.2237 19.4L14.224 19.6M14 25.4V25.2M14 25.4C14.0001 25.4 14.0002 25.4 14.0003 25.4L14 25.2M14 25.2C11.5297 25.2039 9.12995 24.3876 7.17602 22.8823M14 25.2C16.6859 25.2 19.15 24.2547 21.0795 22.6795C21.0832 22.6832 21.0869 22.687 21.0906 22.6908L21.2338 22.5512L21.1046 22.3985C21.1005 22.402 21.0964 22.4055 21.0923 22.4089C20.21 21.5401 19.1702 20.8465 18.0278 20.3655C16.8238 19.8586 15.5304 19.5983 14.224 19.6M7.17602 22.8823L14.224 19.6M7.17602 22.8823C7.17249 22.8861 7.16896 22.8899 7.16543 22.8938L7.0182 22.7584M7.17602 22.8823C7.12309 22.8415 7.07048 22.8002 7.0182 22.7584M7.0182 22.7584L7.14309 22.6022C7.14723 22.6055 7.15137 22.6088 7.15551 22.6121C7.10927 22.6604 7.06349 22.7091 7.0182 22.7584ZM4.90279 20.8699L5.04552 21.0589L5.20796 20.8866C6.36593 19.6577 7.76325 18.6776 9.31374 18.0095C10.8643 17.3413 12.5353 16.9977 14.2237 17H14.2243C15.8522 16.9979 17.4646 17.3174 18.9687 17.9401C20.4729 18.5629 21.8392 19.4766 22.9892 20.6289L23.1566 20.7966L23.2938 20.6034C24.5137 18.8865 25.2342 16.8651 25.3751 14.7637C25.5161 12.6622 25.0722 10.5627 24.0925 8.69821C23.1129 6.8337 21.6359 5.27703 19.8253 4.2009C18.0148 3.12477 15.9415 2.57126 13.8355 2.60177C11.7296 2.63229 9.6732 3.24563 7.8946 4.37377C6.116 5.5019 4.6847 7.10071 3.7595 8.99283C2.83429 10.8849 2.45135 12.9964 2.65316 15.0929C2.85497 17.1894 3.63364 19.189 4.90279 20.8699ZM14 27.8C6.37826 27.8 0.2 21.6217 0.2 14C0.2 6.37826 6.37826 0.2 14 0.2C21.6217 0.2 27.8 6.37826 27.8 14C27.8 21.6217 21.6217 27.8 14 27.8ZM14 15.2C12.5678 15.2 11.1943 14.6311 10.1816 13.6184C9.16893 12.6057 8.6 11.2322 8.6 9.8C8.6 8.36783 9.16893 6.99432 10.1816 5.98162C11.1943 4.96893 12.5678 4.4 14 4.4C15.4322 4.4 16.8057 4.96893 17.8184 5.98162C18.8311 6.99432 19.4 8.36783 19.4 9.8C19.4 11.2322 18.8311 12.6057 17.8184 13.6184C16.8057 14.6311 15.4322 15.2 14 15.2ZM14 12.8C14.7957 12.8 15.5587 12.4839 16.1213 11.9213C16.6839 11.3587 17 10.5956 17 9.8C17 9.00435 16.6839 8.24129 16.1213 7.67868C15.5587 7.11607 14.7957 6.8 14 6.8C13.2044 6.8 12.4413 7.11607 11.8787 7.67868C11.3161 8.24129 11 9.00435 11 9.8C11 10.5956 11.3161 11.3587 11.8787 11.9213C12.4413 12.4839 13.2044 12.8 14 12.8Z" fill="white" stroke="#00ABFF" stroke-width="0.4"/>
</svg>
