<?xml version="1.0" encoding="utf-8"?><svg width="300" height="280" fill="none" xmlns="http://www.w3.org/2000/svg" viewBox="0 0 300 280"><path d="M190.208 137.515l.151-2.635c.304.164.758.164 1.212.164 2.12 0 2.271-3.458 2.271-13.339h9.995v15.81h-3.028V124.34h-4.24c0 8.564-.303 13.34-4.241 13.34-.757.164-1.514 0-2.12-.165zm17.112-15.645h2.877v5.764c0 1.646-.151 4.611-.151 6.093l6.209-11.858h3.18v15.811h-2.878v-5.764c0-1.647.152-4.612.152-6.094L210.5 137.68h-3.18v-15.81zm14.537 15.48l.303-2.8c1.06.659 2.422.824 3.634.824 1.363 0 3.028-.33 3.028-2.306 0-2.141-2.12-2.306-3.483-2.306h-1.059v-2.47h.757c1.362 0 3.634-.33 3.634-2.306 0-1.647-1.515-1.976-2.726-1.976-1.06 0-2.574.329-3.483.658l-.303-2.47c1.212-.329 2.878-.659 4.24-.659 2.878 0 5.149 1.153 5.149 4.117 0 1.647-1.06 2.965-2.726 3.459 1.818.329 3.029 1.976 3.029 3.788 0 3.458-2.423 4.775-5.754 4.775-1.514.331-3.029.002-4.24-.328zm12.872-15.48h2.877v5.764c0 1.646-.151 4.611-.151 6.093l6.208-11.858h3.18v15.811h-2.877v-5.764c0-1.647.151-4.612.151-6.094l-6.208 11.858h-3.18v-15.81zm15.748 0h3.029v6.258h5.754v-6.258h3.029v15.81h-3.029v-6.918h-5.754v6.918h-3.028v-15.81h-.001zm15.143 0h8.48v2.635h-5.602v13.175h-3.029v-15.81h.151zm-109.181 39.524h6.512c2.423 0 3.937-.658 4.997-2.141.454-.658 1.211-1.976 1.211-4.446 0-2.47-.757-4.118-2.271-5.435-.909-.658-2.12-1.153-4.089-1.153h-6.511v13.175h.151zm-8.631 7.906v-47.43h28.469l-2.423 7.905H156.44v10.539h7.117c5.603 0 8.632 1.483 10.601 3.294 1.514 1.483 4.239 4.776 4.239 11.199s-2.725 9.882-5.148 11.693c-2.726 1.977-5.603 2.635-11.358 2.635h-14.082v.165h-.001zm-25.137 0v-39.525h-12.569v-7.905h35.131l-2.422 7.905h-11.206V169.3h-8.934zm-35.132-28.491h4.846c1.514 0 2.271 0 3.028-.165 1.969-.658 3.332-2.635 3.332-5.27 0-3.129-1.363-4.611-3.332-5.27-.757-.329-1.514-.494-3.18-.494H87.69v11.199h-.151zm.152 8.234v12.516h6.057c1.817 0 3.483-.164 4.694-1.317 1.211-1.153 1.666-2.8 1.666-4.776 0-1.482-.454-2.964-1.06-4.117-1.212-1.648-2.877-2.141-5.603-2.141h-5.754v-.165zm13.931-4.94c1.666.823 3.181 1.976 4.089 2.634 2.574 2.306 3.634 5.27 3.634 9.223 0 6.423-3.18 11.199-8.329 12.681-1.514.494-3.18.659-6.36.659H78.908v-47.43h13.931c2.877 0 4.846.164 6.512.658 4.997 1.483 8.328 5.27 8.328 11.199 0 3.129-1.059 5.929-2.725 7.741-.606.823-1.666 1.811-3.332 2.635z" fill="#263975"/><path d="M69.974 118.246H33.025L35.751 111H72.7l-2.726 7.246zm-1.363 3.624H31.663l-2.726 7.246h36.949l2.725-7.246zm-3.937 10.704H27.725L25 139.82h36.949l2.725-7.246z" fill="#009FDF"/></svg>