<?xml version="1.0" encoding="utf-8"?><svg width="192" height="25" fill="none" xmlns="http://www.w3.org/2000/svg" viewBox="0 0 192 25"><path d="M.672 24V1.156h4.844V20h9.265v4H.671zm31.25 0H18.766V1.156h13.156v3.969h-8.313v5.016h7.735v3.968h-7.735V20h8.313v4zm18.765 0l-1.656-5.438h-8.328L39.047 24h-5.219l8.063-22.938h5.922L55.906 24h-5.218zm-2.812-9.5a4757.274 4757.274 0 01-2.594-8.36 26.338 26.338 0 01-.406-1.53c-.344 1.333-1.328 4.63-2.953 9.89h5.953zm24.406 3.156c0 2.063-.745 3.688-2.234 4.875-1.48 1.188-3.542 1.782-6.188 1.782-2.437 0-4.593-.459-6.468-1.375v-4.5c1.541.687 2.843 1.171 3.906 1.453 1.073.28 2.052.422 2.937.422 1.063 0 1.875-.204 2.438-.61.573-.406.86-1.01.86-1.812 0-.448-.126-.844-.376-1.188-.25-.354-.62-.693-1.11-1.015-.478-.323-1.463-.839-2.952-1.547-1.396-.657-2.443-1.287-3.14-1.891a7.099 7.099 0 01-1.673-2.11c-.416-.801-.625-1.739-.625-2.812 0-2.02.683-3.61 2.047-4.766C61.078 1.407 62.974.829 65.391.829c1.187 0 2.317.14 3.39.422 1.084.281 2.214.677 3.39 1.188L70.61 6.203c-1.218-.5-2.229-.849-3.03-1.047a9.637 9.637 0 00-2.345-.297c-.916 0-1.62.214-2.109.641-.49.427-.734.984-.734 1.672 0 .427.099.802.297 1.125.197.312.51.62.937.922.438.291 1.463.823 3.078 1.594 2.135 1.02 3.6 2.046 4.39 3.078.792 1.02 1.188 2.276 1.188 3.765zM89.578 24H76.422V1.156h13.156v3.969h-8.312v5.016H89v3.968h-7.734V20h8.312v4zm9.625-12.094h1.594c1.489 0 2.604-.291 3.344-.875.739-.594 1.109-1.453 1.109-2.578 0-1.135-.312-1.974-.938-2.515-.614-.542-1.583-.813-2.906-.813h-2.203v6.781zm10.938-3.625c0 2.459-.771 4.339-2.313 5.64-1.531 1.303-3.713 1.954-6.547 1.954h-2.078V24H94.36V1.156h7.297c2.771 0 4.875.6 6.313 1.797 1.448 1.188 2.172 2.964 2.172 5.328zm25.047 4.266c0 3.781-.938 6.687-2.813 8.719-1.875 2.03-4.563 3.047-8.063 3.047-3.5 0-6.187-1.016-8.062-3.047-1.875-2.032-2.812-4.948-2.812-8.75 0-3.802.937-6.704 2.812-8.704 1.885-2.01 4.583-3.015 8.094-3.015 3.51 0 6.192 1.01 8.047 3.031 1.864 2.021 2.797 4.927 2.797 8.719zm-16.672 0c0 2.552.484 4.474 1.453 5.765.969 1.292 2.416 1.938 4.343 1.938 3.865 0 5.797-2.568 5.797-7.703 0-5.146-1.921-7.719-5.765-7.719-1.927 0-3.38.651-4.36 1.953-.979 1.292-1.468 3.214-1.468 5.766zM139.922 24V1.156h4.844V24h-4.844zm30.859 0h-6.156l-9.937-17.281h-.141c.198 3.052.297 5.229.297 6.531V24h-4.328V1.156h6.109l9.922 17.11h.109c-.156-2.97-.234-5.068-.234-6.297V1.156h4.359V24zm14.578 0h-4.843V5.187h-6.204v-4.03h17.25v4.03h-6.203V24z" fill="#fff"/></svg>