<?xml version="1.0" encoding="utf-8"?><svg width="28" height="28" fill="none" xmlns="http://www.w3.org/2000/svg" viewBox="0 0 28 28"><path d="M14 0c7.732 0 14 6.268 14 14s-6.268 14-14 14S0 21.732 0 14 6.268 0 14 0zm0 21.583c-2.434 0-4.76.68-6.763 1.924A11.61 11.61 0 0014 25.667c2.52 0 4.855-.8 6.762-2.159A12.762 12.762 0 0014 21.583zm0-19.25C7.557 2.333 2.333 7.557 2.333 14c0 3.052 1.172 5.83 3.09 7.909A15.09 15.09 0 0114 19.25c3.114 0 6.084.943 8.578 2.657A11.623 11.623 0 0025.667 14c0-6.443-5.224-11.667-11.667-11.667zm0 4.084a5.54 5.54 0 015.542 5.541A5.54 5.54 0 0114 17.5a5.54 5.54 0 01-5.542-5.542A5.54 5.54 0 0114 6.417zm0 2.333a3.207 3.207 0 00-3.208 3.208A3.207 3.207 0 0014 15.167a3.207 3.207 0 003.208-3.209A3.207 3.207 0 0014 8.75z" fill="#fff"/></svg>