<?xml version="1.0" encoding="utf-8"?><svg width="28" height="28" fill="none" xmlns="http://www.w3.org/2000/svg" viewBox="0 0 28 28"><path d="M14.224 19.4a9.972 9.972 0 00-7.353 3.223l-.145.158.167.134A11.353 11.353 0 0014 25.4m.224-6a9.97 9.97 0 017.153 3.012l.15.153-.164.139A11.357 11.357 0 0114 25.4m.224-6s0 0 0 0v.2m0-.2s0 0 0 0v.2M14 25.4v-.2m0 .2s0 0 0 0v-.2m0 0c-2.47.004-4.87-.812-6.824-2.318M14 25.2c2.686 0 5.15-.945 7.08-2.52l.01.01.144-.139-.13-.152a1.133 1.133 0 01-.012.01 9.772 9.772 0 00-6.868-2.809m-7.048 3.282l7.048-3.282m-7.048 3.282a1.203 1.203 0 00-.01.012l-.148-.136m.158.124c-.053-.04-.106-.082-.158-.124m0 0l.125-.156.013.01a9.745 9.745 0 00-.138.146zM4.903 20.87l.143.189.162-.172A12.368 12.368 0 0114.224 17h0a12.362 12.362 0 018.765 3.629l.168.168.137-.194a11.4 11.4 0 10-18.391.267zM14 27.8C6.378 27.8.2 21.622.2 14 .2 6.378 6.378.2 14 .2 21.622.2 27.8 6.378 27.8 14c0 7.622-6.178 13.8-13.8 13.8zm0-12.6a5.4 5.4 0 110-10.8 5.4 5.4 0 010 10.8zm0-2.4a3 3 0 100-6 3 3 0 000 6z" fill="#fff" stroke="#00ABFF" stroke-width=".4"/></svg>